# Alias OBJ Model File
# Exported from SketchUp, (c) 2000-2012 Trimble Navigation Limited
# File units = millimeters

mtllib pen-holder.mtl

g Mesh1 Model

usemtl FrontColor
v -5.55407 16 1.48821
vt -0.218664 -0.0585909
vn 0 1 -0
v -5.55407 16 -1.48821
vt -0.218664 0.0585909
v -5.75 16 -7.04172e-16
vt -0.226378 2.77233e-17
f 1/1/1 2/2/1 3/3/1

v -4.97965 16 2.875
vt -0.196049 -0.113189
f 2/2/1 1/1/1 4/4/1

vt -0.0295483 0.629921
vn -0.965926 1.2816e-16 0.258819
v -5.55407 13 1.48821
vt -0.0295483 0.511811
v -4.97965 13 2.875
vt 0.0295483 0.511811
vn -0.866025 -2.6036e-17 0.5
vt 0.0295483 0.629921
f 1/5/2 5/6/2 6/7/3 4/8/3 

vn -1 6.60601e-17 -6.71882e-16
v -5.75 13 -3.56902e-15
f 3/5/4 7/6/4 5/7/2 1/8/2 

vn -0.965926 -3.99349e-18 -0.258819
v -5.55407 13 -1.48821
f 2/5/5 8/6/5 7/7/4 3/8/4 

v -4.97965 16 -2.875
vn -0.866025 -1.23729e-17 -0.5
v -4.97965 13 -2.875
f 9/5/6 10/6/6 8/7/5 2/8/5 

v -4.06586 16 -4.06586
vn -0.707107 -1.58402e-16 -0.707107
v -4.06586 13 -4.06586
f 11/5/7 12/6/7 10/7/6 9/8/6 

v -2.875 16 -4.97965
vn -0.5 -2.47913e-16 -0.866025
v -2.875 13 -4.97965
f 13/5/8 14/6/8 12/7/7 11/8/7 

v -1.48821 16 -5.55407
vn -0.258819 -2.14115e-16 -0.965926
v -1.48821 13 -5.55407
f 15/5/9 16/6/9 14/7/8 13/8/8 

v 3.52086e-16 16 -5.75
vn 2.09963e-16 -1.99006e-16 -1
v 2.68778e-15 13 -5.75
f 17/5/10 18/6/10 16/7/9 15/8/9 

v 1.48821 16 -5.55407
vn 0.258819 -1.47455e-16 -0.965926
v 1.48821 13 -5.55407
f 19/5/11 20/6/11 18/7/10 17/8/10 

v 2.875 16 -4.97965
vn 0.5 -5.03893e-17 -0.866025
v 2.875 13 -4.97965
f 21/5/12 22/6/12 20/7/11 19/8/11 

v 4.06586 16 -4.06586
vn 0.707107 -1.96006e-17 -0.707107
v 4.06586 13 -4.06586
f 23/5/13 24/6/13 22/7/12 21/8/12 

v 4.97965 16 -2.875
vn 0.866025 -1.04935e-16 -0.5
v 4.97965 13 -2.875
f 25/5/14 26/6/14 24/7/13 23/8/13 

v 5.55407 16 -1.48821
vn 0.965926 -4.04792e-17 -0.258819
v 5.55407 13 -1.48821
f 27/5/15 28/6/15 26/7/14 25/8/14 

v 5.75 16 -0
vn 1 -7.79513e-17 1.39975e-16
v 5.75 13 -5.72806e-15
f 29/5/16 30/6/16 28/7/15 27/8/15 

v 5.55407 16 1.48821
vn 0.965926 -2.21829e-16 0.258819
v 5.55407 13 1.48821
f 31/5/17 32/6/17 30/7/16 29/8/16 

v 4.97965 16 2.875
vn 0.866025 -1.98841e-16 0.5
v 4.97965 13 2.875
f 33/5/18 34/6/18 32/7/17 31/8/17 

v 4.06586 16 4.06586
vn 0.707107 -3.39074e-18 0.707107
v 4.06586 13 4.06586
f 35/5/19 36/6/19 34/7/18 33/8/18 

v 2.875 16 4.97965
vn 0.5 6.99057e-17 0.866025
v 2.875 13 4.97965
f 37/5/20 38/6/20 36/7/19 35/8/19 

v 1.48821 16 5.55407
vn 0.258819 -4.53854e-17 0.965926
v 1.48821 13 5.55407
f 39/5/21 40/6/21 38/7/20 37/8/20 

v -1.05626e-15 16 5.75
vn -1.6797e-16 -1.96627e-16 1
v 3.78933e-15 13 5.75
f 41/5/22 42/6/22 40/7/21 39/8/21 

v -1.48821 16 5.55407
vn -0.258819 -2.91051e-16 0.965926
v -1.48821 13 5.55407
f 43/5/23 44/6/23 42/7/22 41/8/22 

v -2.875 16 4.97965
vn -0.5 -2.34719e-16 0.866025
v -2.875 13 4.97965
f 45/5/24 46/6/24 44/7/23 43/8/23 

v -4.06586 16 4.06586
vn -0.707107 -1.95284e-16 0.707107
v -4.06586 13 4.06586
f 47/5/25 48/6/25 46/7/24 45/8/24 

f 4/5/3 6/6/3 48/7/25 47/8/25 

v -4 13 6.9282
vt -0.15748 -0.272764
vt -0.160073 -0.160073
f 6/4/1 49/9/1 48/10/1

f 5/1/1 49/9/1 6/4/1

v -5.65685 13 5.65685
vt -0.222711 -0.222711
f 5/1/1 50/11/1 49/9/1

vt -0.226378 1.40513e-16
f 7/12/1 50/11/1 5/1/1

v -6.9282 13 -4
vt -0.272764 0.15748
f 51/13/1 50/11/1 7/12/1

v -6.9282 13 4
vt -0.272764 -0.15748
f 51/13/1 52/14/1 50/11/1

v -7.72741 13 -2.07055
vt -0.304229 0.0815178
f 53/15/1 52/14/1 51/13/1

v -7.72741 13 2.07055
vt -0.304229 -0.0815178
f 53/15/1 54/16/1 52/14/1

v -8 13 -9.79717e-16
vt -0.314961 3.85716e-17
f 54/16/1 53/15/1 55/17/1

v -7.72741 11 -2.07055
vt -0.0411106 0.433071
vn -0.965926 0 -0.258819
v -8 11 -9.79717e-16
vt 0.0411106 0.433071
vn -1 0 -2.23961e-16
vt 0.0411106 0.511811
vt -0.0411106 0.511811
f 56/18/26 57/19/27 55/20/27 53/21/26 

vt 0.304229 0.0815178
vn 0 -1 -0
v -7.72741 11 2.07055
vt 0.304229 -0.0815178
vt 0.314961 3.85716e-17
f 56/22/28 58/23/28 57/24/28

v -6.9282 11 4
vt 0.272764 -0.15748
f 58/23/28 56/22/28 59/25/28

v -6.9282 11 -4
vt 0.272764 0.15748
f 59/25/28 56/22/28 60/26/28

vn -0.866025 0 -0.5
f 60/18/29 56/19/26 53/20/26 51/21/29 

v -5.65685 11 -5.65685
vn -0.707107 0 -0.707107
v -5.65685 13 -5.65685
f 61/18/30 60/19/29 51/20/29 62/21/30 

vt 0.222711 0.222711
v -5.75 11 -3.56902e-15
vt 0.226378 1.40513e-16
f 61/27/28 63/28/28 60/26/28

v -5.55407 11 -1.48821
vt 0.218664 0.0585909
f 63/28/28 61/27/28 64/29/28

v -4 11 -6.9282
vt 0.15748 0.272764
f 64/29/28 61/27/28 65/30/28

vn -0.5 0 -0.866025
v -4 13 -6.9282
f 65/18/31 61/19/30 62/20/30 66/21/31 

vt -0.222711 0.222711
vt -0.15748 0.272764
f 62/31/1 8/2/1 66/32/1

f 62/31/1 7/12/1 8/2/1

f 7/12/1 62/31/1 51/13/1

vt -0.196049 0.113189
f 66/32/1 8/2/1 10/33/1

vt -0.160073 0.160073
f 66/32/1 10/33/1 12/34/1

vt -0.113189 0.196049
f 66/32/1 12/34/1 14/35/1

v -2.07055 13 -7.72741
vt -0.0815178 0.304229
f 66/32/1 14/35/1 67/36/1

vt -0.0585909 0.218664
f 67/36/1 14/35/1 16/37/1

v 4.89859e-16 13 -8
vt 1.92858e-17 0.314961
f 67/36/1 16/37/1 68/38/1

vt 1.05818e-16 0.226378
f 68/38/1 16/37/1 18/39/1

v 2.07055 13 -7.72741
vt 0.0815178 0.304229
f 68/38/1 18/39/1 69/40/1

vt 0.0585909 0.218664
f 69/40/1 18/39/1 20/41/1

vt 0.113189 0.196049
f 69/40/1 20/41/1 22/42/1

v 4 13 -6.9282
f 69/40/1 22/42/1 70/30/1

vt 0.160073 0.160073
f 70/30/1 22/42/1 24/43/1

v 5.65685 13 -5.65685
f 70/30/1 24/43/1 71/27/1

vt 0.196049 0.113189
f 71/27/1 24/43/1 26/44/1

f 71/27/1 26/44/1 28/29/1

vt 0.226378 2.25514e-16
f 71/27/1 28/29/1 30/45/1

v 6.9282 13 -4
f 71/27/1 30/45/1 72/26/1

v 6.9282 13 4
f 72/26/1 30/45/1 73/25/1

v 5.65685 13 5.65685
vt 0.222711 -0.222711
f 30/45/1 74/46/1 73/25/1

vt 0.218664 -0.0585909
f 32/47/1 74/46/1 30/45/1

vt 0.196049 -0.113189
f 34/48/1 74/46/1 32/47/1

vt 0.160073 -0.160073
f 36/49/1 74/46/1 34/48/1

v 4 13 6.9282
vt 0.15748 -0.272764
f 36/49/1 75/50/1 74/46/1

vt 0.113189 -0.196049
f 38/51/1 75/50/1 36/49/1

v 2.07055 13 7.72741
vt 0.0815178 -0.304229
f 38/51/1 76/52/1 75/50/1

vt 0.0585909 -0.218664
f 40/53/1 76/52/1 38/51/1

vt 1.49186e-16 -0.226378
f 42/54/1 76/52/1 40/53/1

v -1.46958e-15 13 8
vt -5.78573e-17 -0.314961
f 42/54/1 77/55/1 76/52/1

vt -0.0585909 -0.218664
f 44/56/1 77/55/1 42/54/1

v -2.07055 13 7.72741
vt -0.0815178 -0.304229
f 44/56/1 78/57/1 77/55/1

vt -0.113189 -0.196049
f 46/58/1 78/57/1 44/56/1

f 46/58/1 49/9/1 78/57/1

f 48/10/1 49/9/1 46/58/1

v -4 11 6.9282
vn -0.5 0 0.866025
v -2.07055 11 7.72741
vn -0.258819 0 0.965926
f 79/18/32 80/19/33 78/20/33 49/21/32 

v -2.875 11 4.97965
f 79/50/28 81/51/28 80/52/28

v -4.06586 11 4.06586
f 79/50/28 82/49/28 81/51/28

v -4.97965 11 2.875
f 79/50/28 83/48/28 82/49/28

v -5.55407 11 1.48821
f 79/50/28 84/47/28 83/48/28

v -5.65685 11 5.65685
f 85/46/28 84/47/28 79/50/28

f 85/46/28 63/28/28 84/47/28

f 85/46/28 60/26/28 63/28/28

f 59/25/28 60/26/28 85/46/28

vn -0.866025 0 0.5
vn -0.707107 0 0.707107
f 59/18/34 85/19/35 50/20/35 52/21/34 

f 85/18/35 79/19/32 49/20/32 50/21/35 

vn -0.965926 0 0.258819
f 58/18/36 59/19/34 52/20/34 54/21/36 

f 57/18/27 58/19/36 54/20/36 55/21/27 

v -5.55407 0 1.48821
vt 0.0295483 1.10501e-17
vn -0.965926 -5.64223e-17 0.258819
vt 0.0295483 0.433071
vt -0.0295483 0.433071
vn -1 -2.84825e-17 -5.31906e-16
v -5.75 0 -7.04172e-16
vt -0.0295483 1.10501e-17
f 86/59/37 84/60/37 63/61/38 87/62/38 

v -4.97965 0 2.875
vt 0.0295483 1.40602e-17
vn -0.866025 1.01954e-17 0.5
vt -0.0295483 1.40602e-17
f 88/63/39 83/60/39 84/61/37 86/64/37 

v -4.06586 0 4.06586
vt 0.0295483 -1.85975e-17
vn -0.707107 8.36865e-17 0.707107
vt -0.0295483 -1.85975e-17
f 89/65/40 82/60/40 83/61/39 88/66/39 

v -2.875 0 4.97965
vt 0.0295483 -1.86465e-17
vn -0.5 1.02136e-16 0.866025
vt -0.0295483 -1.86465e-17
f 90/67/41 81/60/41 82/61/40 89/68/40 

v -1.48821 0 5.55407
vt 0.0295483 -2.68085e-17
vn -0.258819 1.27094e-16 0.965926
v -1.48821 11 5.55407
vt -0.0295483 -2.68085e-17
f 91/69/42 92/60/42 81/61/41 90/70/41 

v -1.05626e-15 0 5.75
vt 0.0295483 -2.97535e-17
vn -1.81968e-16 8.5849e-17 1
v 3.78933e-15 11 5.75
vt -0.0295483 -2.97535e-17
f 93/71/43 94/60/43 92/61/42 91/72/42 

v 1.48821 0 5.55407
vt 0.0295483 -8.45289e-18
vn 0.258819 1.90832e-17 0.965926
v 1.48821 11 5.55407
vt -0.0295483 -8.45289e-18
f 95/73/44 96/60/44 94/61/43 93/74/43 

v 2.875 0 4.97965
vt 0.0295483 -3.9922e-20
vn 0.5 -3.12102e-17 0.866025
v 2.875 11 4.97965
vt -0.0295483 -3.9922e-20
f 97/75/45 98/60/45 96/61/44 95/76/44 

v 4.06586 0 4.06586
vt 0.0295483 1.39298e-17
vn 0.707107 2.34498e-18 0.707107
v 4.06586 11 4.06586
vt -0.0295483 1.39298e-17
f 99/77/46 100/60/46 98/61/45 97/78/45 

v 4.97965 0 2.875
vt 0.0295483 -1.49734e-17
vn 0.866025 8.41549e-17 0.5
v 4.97965 11 2.875
vt -0.0295483 -1.49734e-17
f 101/79/47 102/60/47 100/61/46 99/80/46 

v 5.55407 0 1.48821
vt 0.0295483 -2.24791e-17
vn 0.965926 9.31815e-17 0.258819
v 5.55407 11 1.48821
vt -0.0295483 -2.24791e-17
f 103/81/48 104/60/48 102/61/47 101/82/47 

v 5.75 0 -0
vt 0.0295483 -1.89906e-17
vn 1 3.29452e-17 1.39975e-16
v 5.75 11 -5.72806e-15
vt -0.0295483 -1.89906e-17
f 105/83/49 106/60/49 104/61/48 103/84/48 

v 5.55407 0 -1.48821
vt 0.0295483 4.32859e-18
vn 0.965926 1.49901e-17 -0.258819
v 5.55407 11 -1.48821
vt -0.0295483 4.32859e-18
f 107/85/50 108/60/50 106/61/49 105/86/49 

v 4.97965 0 -2.875
vt 0.0295483 -1.09998e-17
vn 0.866025 4.18731e-17 -0.5
v 4.97965 11 -2.875
vt -0.0295483 -1.09998e-17
f 109/87/51 110/60/51 108/61/50 107/88/50 

v 4.06586 0 -4.06586
vt 0.0295483 -7.6355e-18
vn 0.707107 7.21812e-18 -0.707107
v 4.06586 11 -4.06586
vt -0.0295483 -7.6355e-18
f 111/89/52 112/60/52 110/61/51 109/90/51 

v 2.875 0 -4.97965
vt 0.0295483 4.42313e-18
vn 0.5 1.94995e-17 -0.866025
v 2.875 11 -4.97965
vt -0.0295483 4.42313e-18
f 113/91/53 114/60/53 112/61/52 111/92/52 

v 1.48821 0 -5.55407
vt 0.0295483 -1.31012e-17
vn 0.258819 6.09803e-17 -0.965926
v 1.48821 11 -5.55407
vt -0.0295483 -1.31012e-17
f 115/93/54 116/60/54 114/61/53 113/94/53 

v 3.52086e-16 0 -5.75
vt 0.0295483 -1.40376e-17
vn 2.37958e-16 8.62052e-17 -1
v 2.68778e-15 11 -5.75
vt -0.0295483 -1.40376e-17
f 117/95/55 118/60/55 116/61/54 115/96/54 

v -1.48821 0 -5.55407
vt 0.0295483 -2.43274e-17
vn -0.258819 9.18803e-17 -0.965926
v -1.48821 11 -5.55407
vt -0.0295483 -2.43274e-17
f 119/97/56 120/60/56 118/61/55 117/98/55 

v -2.875 0 -4.97965
vt 0.0295483 -1.65632e-17
vn -0.5 1.0578e-16 -0.866025
v -2.875 11 -4.97965
vt -0.0295483 -1.65632e-17
f 121/99/57 122/60/57 120/61/56 119/100/56 

v -4.06586 0 -4.06586
vt 0.0295483 -3.05135e-17
vn -0.707107 6.77479e-17 -0.707107
v -4.06586 11 -4.06586
vt -0.0295483 -3.05135e-17
f 123/101/58 124/60/58 122/61/57 121/102/57 

v -4.97965 0 -2.875
vt 0.0295483 3.628e-19
vn -0.866025 4.62969e-18 -0.5
v -4.97965 11 -2.875
vt -0.0295483 3.628e-19
f 125/103/59 126/60/59 124/61/58 123/104/58 

v -5.55407 0 -1.48821
vt 0.0295483 -2.42321e-18
vn -0.965926 1.79178e-18 -0.258819
vt -0.0295483 -2.42321e-18
f 127/105/60 64/60/60 126/61/59 125/106/59 

vt 0.0295483 1.62579e-18
vt -0.0295483 1.62579e-18
f 87/107/38 63/60/38 64/61/60 127/108/60 

vt 0.226378 2.77233e-17
f 127/29/28 86/47/28 87/109/28

f 86/47/28 127/29/28 88/48/28

f 88/48/28 127/29/28 125/44/28

f 88/48/28 125/44/28 89/49/28

f 89/49/28 125/44/28 123/43/28

f 89/49/28 123/43/28 90/51/28

v -3.05 0 -3.73517e-16
vt 0.120079 1.47054e-17
f 90/51/28 123/43/28 128/110/28

f 121/42/28 128/110/28 123/43/28

v -2.94607 0 -0.789398
vt 0.115987 0.0310787
f 128/110/28 121/42/28 129/111/28

v -2.64138 0 -1.525
vt 0.103991 0.0600394
f 129/111/28 121/42/28 130/112/28

f 130/112/28 121/42/28 119/41/28

v -2.15668 0 -2.15668
vt 0.0849085 0.0849085
f 130/112/28 119/41/28 131/113/28

v -1.525 0 -2.64138
vt 0.0600394 0.103991
f 131/113/28 119/41/28 132/114/28

v -0.789398 0 -2.94607
vt 0.0310787 0.115987
f 132/114/28 119/41/28 133/115/28

vt -1.38617e-17 0.226378
f 133/115/28 119/41/28 117/116/28

v 1.86759e-16 0 -3.05
vt -7.3527e-18 0.120079
f 133/115/28 117/116/28 134/117/28

v 0.789398 0 -2.94607
vt -0.0310787 0.115987
f 134/117/28 117/116/28 135/118/28

f 135/118/28 117/116/28 115/37/28

v 1.525 0 -2.64138
vt -0.0600394 0.103991
f 135/118/28 115/37/28 136/119/28

f 136/119/28 115/37/28 113/35/28

v 2.15668 0 -2.15668
vt -0.0849085 0.0849085
f 136/119/28 113/35/28 137/120/28

v 2.64138 0 -1.525
vt -0.103991 0.0600394
f 137/120/28 113/35/28 138/121/28

v 2.94607 0 -0.789398
vt -0.115987 0.0310787
f 138/121/28 113/35/28 139/122/28

f 139/122/28 113/35/28 111/34/28

v 3.05 0 -0
vt -0.120079 0
f 139/122/28 111/34/28 140/123/28

f 140/123/28 111/34/28 99/10/28

f 99/10/28 111/34/28 101/4/28

f 101/4/28 111/34/28 109/33/28

f 101/4/28 109/33/28 103/1/28

f 103/1/28 109/33/28 107/2/28

vt -0.226378 0
f 103/1/28 107/2/28 105/124/28

v 2.94607 0 0.789398
vt -0.115987 -0.0310787
f 99/10/28 141/125/28 140/123/28

f 97/58/28 141/125/28 99/10/28

v 2.64138 0 1.525
vt -0.103991 -0.0600394
f 97/58/28 142/126/28 141/125/28

v 2.15668 0 2.15668
vt -0.0849085 -0.0849085
f 97/58/28 143/127/28 142/126/28

v 1.525 0 2.64138
vt -0.0600394 -0.103991
f 97/58/28 144/128/28 143/127/28

f 95/56/28 144/128/28 97/58/28

v 0.789398 0 2.94607
vt -0.0310787 -0.115987
f 95/56/28 145/129/28 144/128/28

v -5.60276e-16 0 3.05
vt 2.20581e-17 -0.120079
f 95/56/28 146/130/28 145/129/28

vt 4.1585e-17 -0.226378
f 93/131/28 146/130/28 95/56/28

v -0.789398 0 2.94607
vt 0.0310787 -0.115987
f 93/131/28 147/132/28 146/130/28

f 91/53/28 147/132/28 93/131/28

v -1.525 0 2.64138
vt 0.0600394 -0.103991
f 91/53/28 148/133/28 147/132/28

v -2.15668 0 2.15668
vt 0.0849085 -0.0849085
f 91/53/28 149/134/28 148/133/28

v -2.64138 0 1.525
vt 0.103991 -0.0600394
f 91/53/28 150/135/28 149/134/28

f 90/51/28 150/135/28 91/53/28

v -2.94607 0 0.789398
vt 0.115987 -0.0310787
f 90/51/28 151/136/28 150/135/28

f 90/51/28 128/110/28 151/136/28

vt -0.0156734 0
vn 0.965926 0 -0.258819
vt 0.0156734 0
vn 1 0 3.35941e-16
v -3.05 16 -3.73517e-16
vt 0.0156734 0.629921
v -2.94607 16 0.789398
vt -0.0156734 0.629921
f 151/137/61 128/138/62 152/139/62 153/140/61 

vn 0.965926 0 0.258819
v -2.94607 16 -0.789398
f 128/137/62 129/138/63 154/139/63 152/140/62 

vn 0.866025 0 0.5
v -2.64138 16 -1.525
f 129/137/63 130/138/64 155/139/64 154/140/63 

vn 0.707107 0 0.707107
v -2.15668 16 -2.15668
f 130/137/64 131/138/65 156/139/65 155/140/64 

vn 0.5 0 0.866025
v -1.525 16 -2.64138
f 131/137/65 132/138/66 157/139/66 156/140/65 

vn 0.258819 0 0.965926
v -0.789398 16 -2.94607
f 132/137/66 133/138/67 158/139/67 157/140/66 

vn -1.81968e-16 0 1
v 1.86759e-16 16 -3.05
f 133/137/67 134/138/68 159/139/68 158/140/67 

v 0.789398 16 -2.94607
f 134/137/68 135/138/33 160/139/33 159/140/68 

v 1.525 16 -2.64138
f 135/137/33 136/138/32 161/139/32 160/140/33 

v 2.15668 16 -2.15668
f 136/137/32 137/138/35 162/139/35 161/140/32 

v 2.64138 16 -1.525
f 137/137/35 138/138/34 163/139/34 162/140/35 

v 2.94607 16 -0.789398
f 138/137/34 139/138/36 164/139/36 163/140/34 

vn -1 0 -2.51956e-16
v 3.05 16 -0
f 139/137/36 140/138/69 165/139/69 164/140/36 

v 2.94607 16 0.789398
f 140/137/69 141/138/26 166/139/26 165/140/69 

v 2.64138 16 1.525
f 141/137/26 142/138/29 167/139/29 166/140/26 

v 2.15668 16 2.15668
f 142/137/29 143/138/30 168/139/30 167/140/29 

v 1.525 16 2.64138
f 143/137/30 144/138/31 169/139/31 168/140/30 

vn -0.258819 0 -0.965926
v 0.789398 16 2.94607
f 144/137/31 145/138/70 170/139/70 169/140/31 

vn 4.61919e-16 0 -1
v -5.60276e-16 16 3.05
f 145/137/70 146/138/71 171/139/71 170/140/70 

vn 0.258819 0 -0.965926
v -0.789398 16 2.94607
f 146/137/71 147/138/72 172/139/72 171/140/71 

vn 0.5 0 -0.866025
v -1.525 16 2.64138
f 147/137/72 148/138/73 173/139/73 172/140/72 

vn 0.707107 0 -0.707107
v -2.15668 16 2.15668
f 148/137/73 149/138/74 174/139/74 173/140/73 

vn 0.866025 0 -0.5
v -2.64138 16 1.525
f 149/137/74 150/138/75 175/139/75 174/140/74 

f 150/137/75 151/138/61 153/139/61 175/140/75 

f 153/125/1 45/58/1 175/126/1

vt -0.120079 1.47054e-17
f 152/141/1 45/58/1 153/125/1

f 11/34/1 45/58/1 152/141/1

f 11/34/1 47/10/1 45/58/1

f 9/33/1 47/10/1 11/34/1

f 9/33/1 4/4/1 47/10/1

f 2/2/1 4/4/1 9/33/1

f 152/141/1 13/35/1 11/34/1

f 13/35/1 152/141/1 154/122/1

f 13/35/1 154/122/1 155/121/1

f 13/35/1 155/121/1 15/37/1

f 15/37/1 155/121/1 156/120/1

f 15/37/1 156/120/1 157/119/1

f 15/37/1 157/119/1 158/118/1

vt 1.38617e-17 0.226378
f 15/37/1 158/118/1 17/142/1

vt 7.3527e-18 0.120079
f 17/142/1 158/118/1 159/143/1

f 17/142/1 159/143/1 160/115/1

f 17/142/1 160/115/1 19/41/1

f 19/41/1 160/115/1 161/114/1

f 19/41/1 161/114/1 21/42/1

f 21/42/1 161/114/1 162/113/1

f 21/42/1 162/113/1 163/112/1

f 21/42/1 163/112/1 164/111/1

f 21/42/1 164/111/1 23/43/1

vt 0.120079 0
f 23/43/1 164/111/1 165/144/1

f 23/43/1 165/144/1 35/49/1

f 166/136/1 35/49/1 165/144/1

f 166/136/1 37/51/1 35/49/1

f 167/135/1 37/51/1 166/136/1

f 168/134/1 37/51/1 167/135/1

f 169/133/1 37/51/1 168/134/1

f 169/133/1 39/53/1 37/51/1

f 170/132/1 39/53/1 169/133/1

vt -2.20581e-17 -0.120079
f 171/145/1 39/53/1 170/132/1

vt -4.1585e-17 -0.226378
f 171/145/1 41/146/1 39/53/1

f 172/129/1 41/146/1 171/145/1

f 172/129/1 43/56/1 41/146/1

f 173/128/1 43/56/1 172/129/1

f 174/127/1 43/56/1 173/128/1

f 175/126/1 43/56/1 174/127/1

f 175/126/1 45/58/1 43/56/1

f 23/43/1 35/49/1 33/48/1

f 23/43/1 33/48/1 25/44/1

f 25/44/1 33/48/1 31/47/1

f 25/44/1 31/47/1 27/29/1

vt 0.226378 0
f 27/29/1 31/47/1 29/147/1

f 64/29/28 65/30/28 126/44/28

f 126/44/28 65/30/28 124/43/28

f 124/43/28 65/30/28 122/42/28

v -2.07055 11 -7.72741
f 122/42/28 65/30/28 176/40/28

f 176/18/70 65/19/31 66/20/31 67/21/70 

v 4.89859e-16 11 -8
vn -6.99877e-17 0 -1
f 177/18/76 176/19/70 67/20/70 68/21/76 

vt -1.92858e-17 0.314961
f 120/41/28 176/40/28 177/148/28

f 122/42/28 176/40/28 120/41/28

vt -1.05818e-16 0.226378
f 120/41/28 177/148/28 118/149/28

v 2.07055 11 -7.72741
f 118/149/28 177/148/28 178/36/28

f 178/18/72 177/19/76 68/20/76 69/21/72 

v 4 11 -6.9282
f 179/18/73 178/19/72 69/20/72 70/21/73 

f 114/35/28 178/36/28 179/32/28

f 116/37/28 178/36/28 114/35/28

f 118/149/28 178/36/28 116/37/28

f 114/35/28 179/32/28 112/34/28

v 5.65685 11 -5.65685
f 112/34/28 179/32/28 180/31/28

f 180/18/74 179/19/73 70/20/73 71/21/74 

v 6.9282 11 -4
f 181/18/75 180/19/74 71/20/74 72/21/75 

vt -0.226378 2.25514e-16
f 106/150/28 180/31/28 181/13/28

f 108/2/28 180/31/28 106/150/28

f 110/33/28 180/31/28 108/2/28

f 112/34/28 180/31/28 110/33/28

v 6.9282 11 4
f 106/150/28 181/13/28 182/14/28

v 7.72741 11 2.07055
f 182/14/28 181/13/28 183/16/28

v 7.72741 11 -2.07055
f 183/16/28 181/13/28 184/15/28

v 7.72741 13 -2.07055
f 184/18/61 181/19/75 72/20/75 185/21/61 

v 7.72741 13 2.07055
f 72/26/1 186/23/1 185/22/1

f 72/26/1 73/25/1 186/23/1

f 182/18/64 183/19/63 186/20/63 73/21/64 

v 8 11 -0
vn 1 0 1.53973e-16
v 8 13 -0
f 183/18/63 187/19/77 188/20/77 186/21/63 

vt -0.314961 0
f 183/16/28 184/15/28 187/151/28

f 187/18/77 184/19/61 185/20/61 188/21/77 

vt 0.314961 0
f 185/22/1 186/23/1 188/152/1

v 5.65685 11 5.65685
f 189/18/65 182/19/64 73/20/64 74/21/65 

f 189/11/28 106/150/28 182/14/28

f 189/11/28 104/1/28 106/150/28

f 189/11/28 102/4/28 104/1/28

f 189/11/28 100/10/28 102/4/28

v 4 11 6.9282
f 190/9/28 100/10/28 189/11/28

f 190/9/28 98/58/28 100/10/28

v 2.07055 11 7.72741
f 191/57/28 98/58/28 190/9/28

f 191/57/28 96/56/28 98/58/28

vt -1.49186e-16 -0.226378
f 191/57/28 94/153/28 96/56/28

v -1.46958e-15 11 8
vt 5.78573e-17 -0.314961
f 192/154/28 94/153/28 191/57/28

f 192/154/28 92/53/28 94/153/28

f 80/52/28 92/53/28 192/154/28

f 80/52/28 81/51/28 92/53/28

vn -4.61919e-16 0 1
f 80/18/33 192/19/78 77/20/78 78/21/33 

f 192/18/78 191/19/67 76/20/67 77/21/78 

f 191/18/67 190/19/66 75/20/66 76/21/67 

f 190/18/66 189/19/65 74/20/65 75/21/66 

